# xmcd
#
# Track frame offsets: 
#        150
#        14705
#        26399
#        45329
#        61573
#        75670
#        87564
#        99360
#        112038
#        124232
#        135275
#        173223
#        209383
#        250060
#        286928
#
# Disc length: 4222 seconds
#
# Revision: 1
# Processed by: cddbd v1.5.2PL0 Copyright (c) Steve Scherf et al.
# Submitted via: ExactAudioCopy v1.3
#
DISCID=c0107c0f
DTITLE=Various Artist - Country Hits
DYEAR=2006
DGENRE=Country
TTITLE0=Johnny Cash - I Walk the Line (live)
TTITLE1=Frankie Laine - Mule Train
TTITLE2=Kenny Rogers - She believes in Me
TTITLE3=Johnny Cash - A Boy named Sue (live)
TTITLE4=Glen Campbell - A Rhinestone Cowboy (live)
TTITLE5=Jim Reeves - Mexican Joe
TTITLE6=Lynn Anderson - How can I unlove You
TTITLE7=Johnny Cash - Ring of Fire (live)
TTITLE8=Hank Williams - Your Cheatin' Heart
TTITLE9=Roger Miller - King of the Road
TTITLE10=Craig Morris - Horn Rims - Wing Tips
TTITLE11=Yankia Dude - Aimee's on the Juice
TTITLE12=Charlie McKnight - I'm gone
TTITLE13=Haizy Daisy - Baby Please Stay
TTITLE14=Craig Morris - Bless Your Heart
EXTD=
EXTT0=
EXTT1=
EXTT2=
EXTT3=
EXTT4=
EXTT5=
EXTT6=
EXTT7=
EXTT8=
EXTT9=
EXTT10=
EXTT11=
EXTT12=
EXTT13=
EXTT14=
PLAYORDER=
